<?xml version="1.0" encoding="UTF-8"?>
<svg xmlns="http://www.w3.org/2000/svg" viewBox="0 0 329.77 270.89">
  <defs>
    <style>
      .cls-1 {
        font-size: 138px;
      }

      .cls-2 {
        fill: #fff;
      }

      .cls-3 {
        fill: #231f20;
        font-family: TempusSansITC, 'Tempus Sans ITC';
      }

      .cls-4 {
        opacity: .4;
      }

      .cls-5 {
        fill: #ffc716;
      }

      .cls-6 {
        fill: #ffd62a;
      }

      .cls-7 {
        fill: #ffd72d;
      }

      .cls-8 {
        font-size: 90.85px;
        letter-spacing: 0em;
      }

      .cls-9 {
        fill: #fff3b6;
      }

      .cls-10 {
        fill: none;
        stroke: #fff;
        stroke-linecap: round;
        stroke-linejoin: round;
        stroke-width: 3px;
      }
    </style>
  </defs>
  <g id="Layer_1" data-name="Layer 1">
    <path class="cls-5" d="m169.05,152.15l-2.9-.86c-.3-33.23-23.21-64.28-58.01-74.56-34.8-10.28-70.53,3.44-88.32,31.32l-2.9-.86-5.45,19.03h.02c-.09.3-.19.59-.28.88-11.52,40.24,13.2,82.92,55.21,95.33,42.01,12.41,85.4-10.14,96.92-50.38.08-.3.15-.59.23-.89h.02s5.45-19.02,5.45-19.02Z"/>
    <ellipse class="cls-7" cx="92.1" cy="132.75" rx="75.75" ry="79.35" transform="translate(-65.18 169.71) rotate(-68.47)"/>
    <path class="cls-10" d="m159.56,176.01c-4.78,7.1-10.74,13.24-17.55,18.24"/>
    <path class="cls-10" d="m50.95,196.21c-9.35-5.98-17.23-13.68-23.26-22.5-3.66-5.34-6.64-11.09-8.86-17.1"/>
    <path class="cls-10" d="m87.58,208.89c-5.12-.5-10.27-1.5-15.41-3.02"/>
    <path class="cls-10" d="m103.61,208.88c-3.09.31-6.22.44-9.37.39"/>
    <path class="cls-10" d="m131.41,200.77c-1.84.93-3.72,1.8-5.64,2.58"/>
    <ellipse class="cls-9" cx="92.1" cy="132.75" rx="66.57" ry="69.73" transform="translate(-65.18 169.71) rotate(-68.47)"/>
    <path class="cls-6" d="m40.7,107.61c3.54-7.13,8.66-13.34,15.07-18.25,2.88-2.21,7.23-1.29,9.08,1.91l21.34,36.85-41.61-12.29c-3.61-1.07-5.48-5-3.88-8.22Z"/>
    <path class="cls-6" d="m116.49,83.83c7.49,3.65,14.08,8.8,19.37,15.15,2.38,2.86,1.56,7.03-1.69,8.72l-37.47,19.48,11.41-39.85c.99-3.46,5-5.14,8.38-3.49Z"/>
    <path class="cls-6" d="m38.53,149.56c-2.81-7.63-3.86-15.66-3.08-23.61.35-3.59,4-5.89,7.61-4.82l41.61,12.29-37.47,19.48c-3.25,1.69-7.4.1-8.67-3.34Z"/>
    <path class="cls-6" d="m73,80.4c7.81-2.48,16.09-3.24,24.34-2.23,3.72.45,6.22,4.06,5.23,7.51l-11.41,39.85-21.34-36.85c-1.85-3.2-.34-7.16,3.18-8.28Z"/>
    <path class="cls-6" d="m98.02,137.37l41.61,12.29c3.61,1.07,5.48,5,3.88,8.22-3.54,7.13-8.66,13.34-15.07,18.25-2.88,2.21-7.23,1.29-9.08-1.91l-21.34-36.85Zm1.52-5.3l37.47-19.48c3.25-1.69,7.4-.1,8.67,3.34,2.81,7.63,3.86,15.66,3.08,23.61-.35,3.59-4,5.89-7.61,4.82l-41.61-12.29Z"/>
    <path class="cls-6" d="m93.04,139.96l21.34,36.85c1.85,3.2.34,7.16-3.18,8.28-7.81,2.48-16.09,3.23-24.34,2.23-3.72-.45-6.22-4.06-5.23-7.51l11.41-39.85Z"/>
    <path class="cls-6" d="m67.72,181.67c-7.49-3.65-14.08-8.8-19.37-15.15-2.38-2.86-1.56-7.03,1.69-8.72l37.47-19.48-11.41,39.85c-.99,3.46-5,5.14-8.38,3.49Z"/>
    <g class="cls-4">
      <path class="cls-2" d="m47.11,106.59c-.87,1.25.26,2.07,1.6,2.31,2.76.51,6.39-.19,9.89-.88.36-.07.75-.15,1.1-.36.55-.33.74-.81.86-1.21,1.02-3.61.81-6.96-.62-9.69-.21-.4-.47-.8-1.09-.88-.41-.05-.93.05-1.44.22-1.71.57-3.19,1.81-4.41,2.99-.01.01-.03.03-.04.04-2.3,2.22-4.1,4.55-5.49,6.87l-.35.59Z"/>
      <path class="cls-2" d="m44.95,105.33c-.6.94-.81,2.08-.48,3.16.4,1.29,1.47,2.08,2.67,2.56,1.55.61,3.4.6,5.04.48,2.04-.14,4.07-.51,6.07-.9.98-.19,2.02-.34,2.86-.92.93-.64,1.51-1.52,1.84-2.59,1.12-3.68.97-7.75-.68-11.24-.41-.86-.97-1.59-1.81-2.05-1.13-.63-2.54-.53-3.73-.13-1.86.62-3.44,1.74-4.88,3.04-2.75,2.47-5.02,5.43-6.91,8.6-.67,1.12-.29,2.79.9,3.42s2.7.3,3.42-.9c.5-.84,1.01-1.67,1.57-2.47.18-.25.36-.5.54-.75-.03.04.44-.57.23-.31-.17.22.14-.17.17-.21.48-.6.99-1.19,1.52-1.76.9-.97,1.86-1.87,2.86-2.74.32-.28-.47.31.12-.09.13-.08.25-.17.37-.26.25-.17.51-.32.78-.47.13-.07.27-.14.4-.2-.42.21.01,0,.13-.05.14-.05.29-.1.43-.13.11-.03.22-.06.32-.08-.28.03-.33.04-.15.03.31,0-.25-.06-.33-.1-.1-.04-.69-.36-.61-.51-.02.04.31.58.34.64.21.42.03.07,0-.02.05.13.1.26.15.39.12.33.22.67.31,1.01.08.31.13.63.2.95.08.38-.03-.4,0-.02.01.18.04.37.05.55.04.68.03,1.37-.03,2.05-.01.16-.03.31-.05.47.05-.44,0-.04-.01.05-.07.36-.13.73-.21,1.09-.08.33-.17.66-.26.99-.04.13-.17.44.07-.17-.12.18-.12.19,0,.02.06-.12.15-.21.27-.27.05-.05.49-.12-.05,0-.15.04-.29.07-.44.1-.37.08-.75.15-1.13.22-.75.14-1.5.28-2.25.41-.21.03-.41.07-.62.1-.06,0-.69.09-.4.06.35-.04-.44.05-.39.04-.2.02-.4.04-.6.06-.76.07-1.52.1-2.28.07-.18,0-.36-.02-.54-.03-.07,0-.65-.09-.29-.02.39.07-.24-.05-.26-.06-.15-.04-.3-.09-.45-.13-.33-.09.46.3.04,0l.24.2c-.15-.15-.15-.14,0,.03.13.31.29.49.3.86,0,.18-.3.87-.03.45.7-1.11.27-2.81-.9-3.42-1.23-.65-2.67-.28-3.42.9Z"/>
    </g>
    <g class="cls-4">
      <path class="cls-2" d="m47.07,137.68c.4-.66.07-1.72-.39-2.4-.93-1.4-2.25-2.18-3.53-2.91-.13-.08-.27-.15-.41-.12-.22.06-.32.36-.39.64-.63,2.46-.81,5.17-.52,7.82.04.39.1.8.31,1.09.14.19.33.3.52.36.64.18,1.26-.26,1.77-.74,0,0,.01-.01.02-.02.97-.9,1.78-2.08,2.44-3.39l.17-.33Z"/>
      <path class="cls-2" d="m49.23,138.94c1.3-2.47-.15-5.26-2.11-6.89-.8-.67-1.66-1.24-2.57-1.76-.98-.55-2.14-.77-3.16-.14-.82.51-1.26,1.35-1.49,2.26-.56,2.24-.79,4.61-.68,6.92.06,1.26.09,2.64.77,3.74,1.05,1.71,3.27,2.01,4.94,1.09,1.18-.64,2.09-1.77,2.88-2.83.55-.75,1-1.56,1.42-2.39.59-1.17.35-2.76-.9-3.42-1.14-.6-2.79-.35-3.42.9-.21.42-.43.85-.67,1.25-.16.27-.33.53-.51.79-.04.06-.38.56-.15.22s-.06.07-.11.13c-.21.25-.43.49-.66.71-.08.08-.17.16-.26.24-.17.14-.17.14,0,0,.17-.13.17-.13,0,0-.45.18.54-.11.04,0,.33-.07.62-.06.93.07.4.17.55.43.79.77.08.22.09.23.03.03-.02-.07-.03-.14-.04-.22-.07-.28.06.63.02.11-.01-.19-.04-.37-.05-.56-.03-.37-.05-.74-.06-1.12-.02-.71,0-1.42.04-2.13.02-.34.05-.67.09-1,.01-.12.03-.24.04-.36l-.04.3c.06-.13.06-.4.09-.54.06-.35.13-.71.21-1.06.03-.14.07-.29.1-.43.02-.08.04-.15.06-.23-.14.42-.4.75-.79.99l-1.26.34c-.75.01-1.13-.38-.6-.08.11.06.21.12.32.19.24.14.47.28.7.43.19.13.41.35.62.44-.28-.22-.35-.27-.21-.15.06.05.12.1.18.15.1.09.19.17.28.26s.19.19.27.28c.08.08.41.32.11.12-.13-.17-.13-.17,0,0l.09.14c.08.12.14.24.21.37.21.38-.12-.41-.05-.12.02.07.05.31.1.36-.04-.4-.05-.51-.04-.31,0,.07,0,.14,0,.21l.05-.4c-.07.25-.04.17.11-.24-.61,1.16-.33,2.77.9,3.42,1.16.61,2.77.34,3.42-.9Z"/>
    </g>
    <g class="cls-4">
      <path class="cls-2" d="m59.47,159.43c-.04-.79-.83-.9-1.51-.7-1.41.42-2.79,1.61-4.11,2.76-.14.12-.28.25-.37.43-.13.28-.05.55.03.77.79,1.93,2.03,3.43,3.61,4.36.23.14.49.26.79.15.2-.07.4-.24.57-.44.57-.67.8-1.6.94-2.44,0-.01,0-.02,0-.03.26-1.58.27-3.1.09-4.5l-.05-.36Z"/>
      <path class="cls-2" d="m61.97,159.43c-.09-.91-.32-1.72-1.01-2.36-.66-.61-1.49-.89-2.38-.92-1.17-.04-2.37.51-3.34,1.11s-1.91,1.39-2.8,2.15c-.59.51-1.14,1.07-1.37,1.84-.3,1.04-.07,1.88.34,2.82.81,1.87,2.11,3.45,3.74,4.66.47.35.98.68,1.55.85.94.28,1.95.16,2.77-.4,1.15-.78,1.84-2.05,2.19-3.37.55-2.07.58-4.28.31-6.39-.09-.69-.22-1.26-.73-1.77-.43-.43-1.15-.76-1.77-.73s-1.32.24-1.77.73c-.42.45-.81,1.13-.73,1.77.19,1.46.22,2.91.03,4.37l.09-.66c-.08.59-.18,1.17-.37,1.74s.26-.45.03-.04c-.06.11-.13.23-.19.35-.22.41.38-.39.07-.09-.19.18-.11.13.22-.15-.21.12-.13.08.25-.11l.66-.09h-.14c.22.03.44.06.66.09-.46-.08.46.3.1.06-.1-.07-.21-.13-.31-.19s-.2-.14-.3-.21c-.39-.27.48.4.12.09-.38-.33-.74-.67-1.06-1.06-.13-.16-.29-.51.07.11-.06-.11-.15-.21-.22-.32-.15-.22-.29-.44-.42-.67-.12-.21-.24-.43-.34-.66-.04-.08-.25-.56-.07-.14s0-.09-.03-.19l.09.66v-.13c-.03.22-.06.44-.09.66.04-.2.02-.18-.05.04-.04.13-.1.25-.2.34-.26.35-.04.09.04.01.2-.18.4-.35.61-.52.18-.16.37-.31.55-.46.05-.04.3-.18.31-.25-.02.11-.46.34-.07.06s.78-.54,1.19-.77c.1-.06.21-.1.32-.16.25-.14-.61.21-.15.07.19-.06.37-.12.57-.15l-.66.09c.17-.02.33-.02.5,0l-.66-.09c.5.1-.29-.15-.44-.27-.2-.13-.35-.3-.47-.51-.16-.46-.22-.57-.16-.32l-.09-.66v.11c.08.68.24,1.27.74,1.77.43.43,1.15.76,1.77.73,1.24-.06,2.64-1.11,2.5-2.5Z"/>
    </g>
  </g>
  <g id="Layer_3" data-name="Layer 3">
    <text class="cls-3" transform="translate(85.11 176.02) rotate(-.04) scale(1.02 1)"><tspan class="cls-1" x="0" y="0">Z</tspan><tspan class="cls-8" x="86.52" y="0">ima</tspan></text>
  </g>
</svg>